<svg width="224" height="224" viewBox="0 0 224 224" fill="none" xmlns="http://www.w3.org/2000/svg">
<g id="Group 1">
<rect id="Rectangle 3" x="-1.15038" y="-1.15038" width="37.3835" height="37.3835" stroke="#1F2021" stroke-width="1.69925"/>
<rect id="Rectangle 9" x="-1.15038" y="36.2332" width="37.3835" height="37.3835" stroke="#1F2021" stroke-width="1.69925"/>
<rect id="Rectangle 21" x="-1.15038" y="111" width="37.3835" height="37.3835" stroke="#1F2021" stroke-width="1.69925"/>
<rect id="Rectangle 15" x="-1.15038" y="73.6165" width="37.3835" height="37.3835" stroke="#1F2021" stroke-width="1.69925"/>
<rect id="Rectangle 22" x="-1.15038" y="148.384" width="37.3835" height="37.3835" stroke="#1F2021" stroke-width="1.69925"/>
<rect id="Rectangle 33" x="-1.15038" y="185.767" width="37.3835" height="37.3835" stroke="#1F2021" stroke-width="1.69925"/>
<rect id="Rectangle 4" x="36.2334" y="-1.15038" width="37.3835" height="37.3835" stroke="#1F2021" stroke-width="1.69925"/>
<rect id="Rectangle 10" x="36.2334" y="36.2332" width="37.3835" height="37.3835" stroke="#1F2021" stroke-width="1.69925"/>
<rect id="Rectangle 23" x="36.2334" y="111" width="37.3835" height="37.3835" stroke="#1F2021" stroke-width="1.69925"/>
<rect id="Rectangle 16" x="36.2334" y="73.6165" width="37.3835" height="37.3835" stroke="#1F2021" stroke-width="1.69925"/>
<rect id="Rectangle 24" x="36.2334" y="148.384" width="37.3835" height="37.3835" stroke="#1F2021" stroke-width="1.69925"/>
<rect id="Rectangle 34" x="36.2334" y="185.767" width="37.3835" height="37.3835" stroke="#1F2021" stroke-width="1.69925"/>
<rect id="Rectangle 5" x="73.6162" y="-1.15038" width="37.3835" height="37.3835" stroke="#1F2021" stroke-width="1.69925"/>
<rect id="Rectangle 11" x="73.6162" y="36.2332" width="37.3835" height="37.3835" stroke="#1F2021" stroke-width="1.69925"/>
<rect id="Rectangle 25" x="73.6162" y="111" width="37.3835" height="37.3835" stroke="#1F2021" stroke-width="1.69925"/>
<rect id="Rectangle 17" x="73.6162" y="73.6165" width="37.3835" height="37.3835" stroke="#1F2021" stroke-width="1.69925"/>
<rect id="Rectangle 26" x="73.6162" y="148.384" width="37.3835" height="37.3835" stroke="#1F2021" stroke-width="1.69925"/>
<rect id="Rectangle 35" x="73.6162" y="185.767" width="37.3835" height="37.3835" stroke="#1F2021" stroke-width="1.69925"/>
<rect id="Rectangle 6" x="111" y="-1.15038" width="37.3835" height="37.3835" stroke="#1F2021" stroke-width="1.69925"/>
<rect id="Rectangle 12" x="111" y="36.2332" width="37.3835" height="37.3835" stroke="#1F2021" stroke-width="1.69925"/>
<rect id="Rectangle 27" x="111" y="111" width="37.3835" height="37.3835" stroke="#1F2021" stroke-width="1.69925"/>
<rect id="Rectangle 18" x="111" y="73.6165" width="37.3835" height="37.3835" stroke="#1F2021" stroke-width="1.69925"/>
<rect id="Rectangle 28" x="111" y="148.384" width="37.3835" height="37.3835" stroke="#1F2021" stroke-width="1.69925"/>
<rect id="Rectangle 36" x="111" y="185.767" width="37.3835" height="37.3835" stroke="#1F2021" stroke-width="1.69925"/>
<rect id="Rectangle 7" x="148.384" y="-1.15038" width="37.3835" height="37.3835" stroke="#1F2021" stroke-width="1.69925"/>
<rect id="Rectangle 13" x="148.384" y="36.2332" width="37.3835" height="37.3835" stroke="#1F2021" stroke-width="1.69925"/>
<rect id="Rectangle 29" x="148.384" y="111" width="37.3835" height="37.3835" stroke="#1F2021" stroke-width="1.69925"/>
<rect id="Rectangle 19" x="148.384" y="73.6165" width="37.3835" height="37.3835" stroke="#1F2021" stroke-width="1.69925"/>
<rect id="Rectangle 30" x="148.384" y="148.384" width="37.3835" height="37.3835" stroke="#1F2021" stroke-width="1.69925"/>
<rect id="Rectangle 37" x="148.384" y="185.767" width="37.3835" height="37.3835" stroke="#1F2021" stroke-width="1.69925"/>
<rect id="Rectangle 8" x="185.767" y="-1.15038" width="37.3835" height="37.3835" stroke="#1F2021" stroke-width="1.69925"/>
<rect id="Rectangle 14" x="185.767" y="36.2332" width="37.3835" height="37.3835" stroke="#1F2021" stroke-width="1.69925"/>
<rect id="Rectangle 31" x="185.767" y="111" width="37.3835" height="37.3835" stroke="#1F2021" stroke-width="1.69925"/>
<rect id="Rectangle 20" x="185.767" y="73.6165" width="37.3835" height="37.3835" stroke="#1F2021" stroke-width="1.69925"/>
<rect id="Rectangle 32" x="185.767" y="148.384" width="37.3835" height="37.3835" stroke="#1F2021" stroke-width="1.69925"/>
<rect id="Rectangle 38" x="185.767" y="185.767" width="37.3835" height="37.3835" stroke="#1F2021" stroke-width="1.69925"/>
<rect id="Rectangle 2" x="-1.15038" y="-1.15038" width="224.301" height="224.301" stroke="#363A3E" stroke-width="1.69925"/>
</g>
</svg>
